<svg width="26" height="25" viewBox="0 0 26 25" fill="none" xmlns="http://www.w3.org/2000/svg">
<path d="M23.2699 14.7291C23.0238 14.5142 23.1691 14.0832 23.4958 14.0832C23.6822 14.0832 23.8332 13.9322 23.8332 13.7458V12.9165C23.8332 12.3642 23.3855 11.9165 22.8332 11.9165H22.6668C22.1145 11.9165 21.6668 11.4687 21.6668 10.9165V9.87312C21.6668 9.79135 21.6567 9.70989 21.6369 9.63055L20.7726 6.17388C20.6613 5.72873 20.2613 5.41645 19.8025 5.41645H18.6558C18.1969 5.41645 17.7969 5.72875 17.6856 6.17391L17.6439 6.34101C17.4861 6.97216 17.9634 7.58355 18.614 7.58355H18.6696C19.1284 7.58355 19.5284 7.89581 19.6397 8.34095L19.6813 8.5074C19.8391 9.13856 19.3618 9.75 18.7112 9.75H17.5853C17.4199 9.75 17.257 9.70893 17.1112 9.63048L11.1103 6.3993C10.6489 6.15086 10.074 6.30076 9.79261 6.74287L8.34364 9.0196C7.80649 9.8636 6.5 9.48311 6.5 8.48269V7.5C6.5 6.94772 6.05228 6.5 5.5 6.5H1C0.447715 6.5 0 6.94772 0 7.5V13.0832C0 13.6355 0.447715 14.0832 1 14.0832H10.2006C10.631 14.0832 11.0131 14.3586 11.1492 14.767L12.8601 19.8995C12.9963 20.3078 13.3784 20.5832 13.8088 20.5832H13.9844C14.6669 20.5832 15.1489 19.9145 14.933 19.267L12.7105 12.6002C12.5744 12.1919 12.1923 11.9165 11.7619 11.9165H10.89C10.1008 11.9165 9.62258 11.0451 10.0464 10.3794L10.5391 9.60552C10.8205 9.16354 11.3954 9.0137 11.8567 9.26207L16.5653 11.797C16.711 11.8754 16.8738 11.9165 17.0393 11.9165H18.5C19.0523 11.9165 19.5 12.3642 19.5 12.9165V13.5418C19.5 14.7329 19.0642 16.5802 18.5312 17.6465L16.5264 21.6555C16.357 21.9942 16.0108 22.2082 15.632 22.2082H12.6375C12.2071 22.2082 11.825 21.9328 11.6888 21.5245L9.97793 16.392C9.84181 15.9836 9.45968 15.7082 9.02925 15.7082H3.25C1.45535 15.7082 0 17.1633 0 18.9582V20.125C0 20.6773 0.447715 21.125 1 21.125H8.55089C8.98129 21.125 9.36342 21.4004 9.49955 21.8087L10.1272 23.6913C10.2633 24.0996 10.6455 24.375 11.0759 24.375H17.5893C17.5901 24.375 18.7096 22.1364 19.0903 21.375C19.2597 21.0362 19.4546 21.125 19.8333 21.125H25C25.5523 21.125 26 20.6773 26 20.125V20.0418C26 18.0605 24.9872 16.229 23.2699 14.7291ZM0.521131 1.12076C0.227502 1.09979 0 0.855469 0 0.561092C0 0.25121 0.251209 0 0.561092 0H6.79969C7.23243 0 7.58322 0.350799 7.58322 0.78353C7.58322 1.23824 7.19744 1.59745 6.74389 1.56507L0.521131 1.12076ZM2.68423 4.37665C2.39175 4.35229 2.16677 4.10779 2.16677 3.8143C2.16677 3.50265 2.41942 3.25 2.73108 3.25H7.88806C8.31813 3.25 8.66677 3.59864 8.66677 4.02872C8.66677 4.48429 8.27741 4.84257 7.82341 4.80475L2.68423 4.37665Z" fill="white"/>
</svg>
